<svg xmlns="http://www.w3.org/2000/svg" xmlns:svg="http://www.w3.org/2000/svg" id="svg5" width="211mm" height="168mm" version="1.1" viewBox="0 0 211 168"><title id="title32814">Overview CKEditor Editing Engine</title><defs id="defs2"><rect id="rect35442" width="210.231" height="129.225" x="614.621" y="275.808"/><rect id="rect15022" width="140.154" height="30.86" x="594.048" y="149.798"/><rect id="rect4736" width="222.447" height="62.362" x="502.755" y="147.226"/><marker style="overflow:visible" id="Arrow2Mend" orient="auto" refX="0" refY="0"><path id="path1575" d="M 8.7185878,4.0337352 -2.2072895,0.01601326 8.7185884,-4.0017078 c -1.7454984,2.3720609 -1.7354408,5.6174519 -6e-7,8.035443 z" transform="scale(-0.6)" style="fill:context-stroke;fill-rule:evenodd;stroke-width:.625;stroke-linejoin:round"/></marker><marker style="overflow:visible" id="marker1850" orient="auto" refX="0" refY="0"><path transform="matrix(-0.4,0,0,-0.4,-4,0)" style="fill:context-stroke;fill-rule:evenodd;stroke:context-stroke;stroke-width:1pt" id="path1848" d="M 0,0 5,-5 -12.5,0 5,5 Z"/></marker><marker style="overflow:visible" id="Arrow2Mstart" orient="auto" refX="0" refY="0"><path id="path1572" d="M 8.7185878,4.0337352 -2.2072895,0.01601326 8.7185884,-4.0017078 c -1.7454984,2.3720609 -1.7354408,5.6174519 -6e-7,8.035443 z" transform="scale(0.6)" style="fill:context-stroke;fill-rule:evenodd;stroke-width:.625;stroke-linejoin:round"/></marker><marker style="overflow:visible" id="Arrow1Sstart" orient="auto" refX="0" refY="0"><path transform="matrix(0.2,0,0,0.2,1.2,0)" style="fill:context-stroke;fill-rule:evenodd;stroke:context-stroke;stroke-width:1pt" id="path1560" d="M 0,0 5,-5 -12.5,0 5,5 Z"/></marker><marker style="overflow:visible" id="Arrow1Mend" orient="auto" refX="0" refY="0"><path transform="matrix(-0.4,0,0,-0.4,-4,0)" style="fill:context-stroke;fill-rule:evenodd;stroke:context-stroke;stroke-width:1pt" id="path1557" d="M 0,0 5,-5 -12.5,0 5,5 Z"/></marker><marker style="overflow:visible" id="Arrow1Mstart" orient="auto" refX="0" refY="0"><path transform="matrix(0.4,0,0,0.4,4,0)" style="fill:context-stroke;fill-rule:evenodd;stroke:context-stroke;stroke-width:1pt" id="path1554" d="M 0,0 5,-5 -12.5,0 5,5 Z"/></marker><marker style="overflow:visible" id="Arrow1Lstart" orient="auto" refX="0" refY="0"><path transform="matrix(0.8,0,0,0.8,10,0)" style="fill:context-stroke;fill-rule:evenodd;stroke:context-stroke;stroke-width:1pt" id="path1548" d="M 0,0 5,-5 -12.5,0 5,5 Z"/></marker><rect id="rect6792" width="261.021" height="54.004" x="502.755" y="147.226"/><rect id="rect8878" width="261.021" height="54.004" x="502.755" y="147.226"/><rect id="rect9728" width="261.021" height="54.004" x="502.755" y="147.226"/><rect id="rect22748" width="58.505" height="26.359" x="594.048" y="149.798"/><rect id="rect25158" width="58.505" height="26.359" x="594.048" y="149.798"/><rect id="rect25164" width="281.472" height="33.712" x="594.048" y="149.798"/><rect id="rect39160" width="197.695" height="45.968" x="502.755" y="147.226"/></defs><g id="layer1" transform="translate(4.5909653,4.625)"><rect style="fill:#fff;stroke-width:1" id="rect1415" width="211" height="168" x="-4.591" y="-4.625"/><g id="g1555"><rect style="fill:#2e8b57;stroke:none;stroke-width:.473212" id="rect846" width="158.277" height="25.985" x="0" y="0"/><rect style="fill:#b22222;stroke:none;stroke-width:.586568" id="rect848" width="76.143" height="105.247" x="0" y="52.917"/><rect style="fill:#20b2aa;stroke:none;stroke-width:.465013" id="rect1004" width="76.143" height="66.146" x="82.021" y="52.917"/><rect style="fill:teal;stroke:none;stroke-width:.2941" id="rect1006" width="76.143" height="26.458" x="82.021" y="132.292"/><rect style="fill:khaki;stroke:none;stroke-width:.105135" id="rect1472" width="76.729" height="2.646" x="0" y="23.339"/><rect style="fill:khaki;stroke:none;stroke-width:.105135" id="rect1492" width="76.729" height="2.646" x="81.548" y="23.339"/><rect style="fill:khaki;stroke:none;stroke-width:.104732" id="rect1494" width="76.143" height="2.646" x="0" y="52.917"/><rect style="fill:khaki;stroke:none;stroke-width:.104732" id="rect1496" width="76.143" height="2.646" x="82.021" y="52.917"/><rect style="fill:khaki;stroke:none;stroke-width:.104764" id="rect1498" width="76.188" height="2.646" x="82.021" y="116.417"/><rect style="fill:khaki;stroke:none;stroke-width:.104732" id="rect1500" width="76.143" height="2.646" x="82.021" y="132.292"/><path style="fill:none;fill-rule:evenodd;stroke:gold;stroke-width:1;stroke-linecap:butt;stroke-linejoin:miter;stroke-miterlimit:4;stroke-dasharray:none;stroke-opacity:1;marker-start:url(#Arrow2Mstart);marker-end:url(#Arrow2Mend)" id="path1524" d="M 38.351464,25.98512 38.084415,52.916668"/><path style="display:inline;fill:none;fill-rule:evenodd;stroke:gold;stroke-width:1;stroke-linecap:butt;stroke-linejoin:miter;stroke-miterlimit:4;stroke-dasharray:none;stroke-opacity:1;marker-start:url(#Arrow2Mstart);marker-end:url(#Arrow2Mend)" id="path1866" d="m 119.92026,25.98512 0.16382,26.931548"/><path style="display:inline;fill:none;fill-rule:evenodd;stroke:gold;stroke-width:1;stroke-linecap:butt;stroke-linejoin:miter;stroke-miterlimit:4;stroke-dasharray:none;stroke-opacity:1;marker-start:url(#Arrow2Mstart);marker-end:url(#Arrow2Mend)" id="path2072" d="m 120.1129,119.06251 -0.0189,13.22916"/><text id="text4734" transform="matrix(0.26458333,0,0,0.26458333,-128.76268,-35.27667)" xml:space="preserve" style="font-style:normal;font-weight:400;font-size:40px;line-height:1.25;font-family:sans-serif;letter-spacing:0;word-spacing:0;white-space:pre;shape-inside:url(#rect4736);fill:#fff;fill-opacity:1;stroke:none"><tspan id="tspan1661" x="502.756" y="183.72">Model</tspan></text><text id="text6790" transform="matrix(0.26458285,0,0,0.26458333,-128.76244,20.28583)" xml:space="preserve" style="font-style:normal;font-weight:400;font-size:40px;line-height:1.25;font-family:sans-serif;letter-spacing:0;word-spacing:0;white-space:pre;shape-inside:url(#rect6792);fill:#fff;fill-opacity:1;stroke:none"><tspan id="tspan1663" x="502.756" y="183.72">Editing View</tspan></text><text id="text8876" transform="matrix(0.26458296,0,0,0.26458333,-46.741659,19.991274)" xml:space="preserve" style="font-style:normal;font-weight:400;font-size:40px;line-height:1.25;font-family:sans-serif;letter-spacing:0;word-spacing:0;white-space:pre;shape-inside:url(#rect8878);fill:#fff;fill-opacity:1;stroke:none"><tspan id="tspan1665" x="502.756" y="183.72">Data View</tspan></text><text id="text9726" transform="matrix(0.26458296,0,0,0.26458333,-46.741661,99.314597)" xml:space="preserve" style="font-style:normal;font-weight:400;font-size:40px;line-height:1.25;font-family:sans-serif;letter-spacing:0;word-spacing:0;white-space:pre;shape-inside:url(#rect9728);fill:#fff;fill-opacity:1;stroke:none"><tspan id="tspan1667" x="502.756" y="183.72">Data</tspan></text><text id="text15020" transform="matrix(0.26458333,0,0,0.26458333,-94.747423,-30.618557)" xml:space="preserve" style="font-style:normal;font-variant:normal;font-weight:400;font-stretch:normal;font-size:21.3333px;line-height:1.25;font-family:monospace;-inkscape-font-specification:monospace;letter-spacing:0;word-spacing:0;white-space:pre;shape-inside:url(#rect15022);fill:#fff;fill-opacity:1;stroke:none"><tspan id="tspan1669" x="594.049" y="168.781">&lt;heading1&gt;</tspan></text><text id="text22746" transform="matrix(0.26458333,0,0,0.26458333,-128.76804,43.515825)" xml:space="preserve" style="font-style:normal;font-variant:normal;font-weight:400;font-stretch:normal;font-size:21.3333px;line-height:1.25;font-family:monospace;-inkscape-font-specification:monospace;letter-spacing:0;word-spacing:0;white-space:pre;shape-inside:url(#rect22748);fill:#fff;fill-opacity:1;stroke:none"><tspan id="tspan1671" x="594.049" y="168.781">&lt;h1&gt;</tspan></text><text id="text25156" transform="matrix(0.26458333,0,0,0.26458333,-43.886597,43.515825)" xml:space="preserve" style="font-style:normal;font-variant:normal;font-weight:400;font-stretch:normal;font-size:21.3333px;line-height:1.25;font-family:monospace;-inkscape-font-specification:monospace;letter-spacing:0;word-spacing:0;white-space:pre;shape-inside:url(#rect25158);fill:#fff;fill-opacity:1;stroke:none"><tspan id="tspan1673" x="594.049" y="168.781">&lt;h1&gt;</tspan></text><text id="text25162" transform="matrix(0.26458333,0,0,0.26458333,-72.463916,110.36634)" xml:space="preserve" style="font-style:normal;font-variant:normal;font-weight:400;font-stretch:normal;font-size:18.6667px;line-height:1.25;font-family:monospace;-inkscape-font-specification:monospace;letter-spacing:0;word-spacing:0;white-space:pre;shape-inside:url(#rect25164);fill:#fff;fill-opacity:1;stroke:none"><tspan id="tspan1675" x="594.049" y="166.408">&lt;p class=&quot;p--heading-1&quot;&gt;</tspan></text><g id="g38110"><ellipse style="fill:#fff;stroke:#000;stroke-width:1;stroke-miterlimit:4;stroke-dasharray:none" id="path37770" cx="167.977" cy="53.311" rx="6.294" ry="10.802"/><ellipse style="fill:#fff;stroke:#000;stroke-width:1;stroke-miterlimit:4;stroke-dasharray:none" id="ellipse37794" cx="181.67" cy="53.311" rx="6.294" ry="10.802"/><circle style="fill:#000;stroke:none;stroke-width:1;stroke-miterlimit:4;stroke-dasharray:none" id="path37898" cx="166.786" cy="58.515" r="4.125"/><circle style="fill:#000;stroke:none;stroke-width:1;stroke-miterlimit:4;stroke-dasharray:none" id="circle38024" cx="180.564" cy="58.473" r="4.125"/></g><text id="text39158" transform="matrix(0.26458296,0,0,0.26458333,18.407825,-8.4159426)" xml:space="preserve" style="font-style:normal;font-weight:400;font-size:40px;line-height:1.25;font-family:sans-serif;letter-spacing:0;word-spacing:0;white-space:pre;shape-inside:url(#rect39160);fill:#000;fill-opacity:1;stroke:none"><tspan id="tspan1677" x="502.756" y="183.72">GHS/GRS</tspan></text></g></g><metadata id="metadata32812"/></svg>