<svg xmlns="http://www.w3.org/2000/svg" xmlns:svg="http://www.w3.org/2000/svg" id="svg5" width="24" height="24" version="1.1" viewBox="0 0 6.35 6.35"><title id="title948">Lock Image Fixture 24×24</title><g id="layer1" transform="translate(46.26804,-6.1237111)"><rect style="fill:#ccc;fill-opacity:1;stroke-width:.133333" id="rect846" width="6.35" height="6.35" x="-46.268" y="6.124"/><g id="g9075" fill-rule="evenodd" transform="matrix(0.04351047,0,0,0.04351047,-45.893336,6.5658567)"><path id="path9071" d="M 64.359,2 C 44.287,2 28.128,18.159 28.128,38.231 V 78.488 H 38.192 V 38.231 c 0,-14.496 11.67,-26.167 26.167,-26.167 14.497,0 26.167,11.67 26.167,26.167 V 78.488 H 100.59 V 38.231 C 100.59,18.159 84.431,2 64.359,2 Z"/><path id="path9073" d="m 22.05779,57.35913 h 84.60268 a 0.5,0.5 0 0 1 0.5,0.5 v 65.25911 a 0.5,0.5 0 0 1 -0.5,0.5 H 22.05779 a 0.5,0.5 0 0 1 -0.5,-0.5 V 57.85913 a 0.5,0.5 0 0 1 0.5,-0.5"/></g></g><metadata id="metadata946"/></svg>